Coordinates
version=1
nRows=8
nColumns=40
inDegrees=yes

Units are S.I. units (second, meters, Newtons, ...)
If the header above contains a line with 'inDegrees', this indicates whether rotational values are in degrees (yes) or radians (no).

endheader
time	pelvis_tilt	pelvis_list	pelvis_rotation	pelvis_tx	pelvis_ty	pelvis_tz	hip_flexion_r	hip_adduction_r	hip_rotation_r	knee_angle_r	knee_angle_r_beta	ankle_angle_r	subtalar_angle_r	mtp_angle_r	hip_flexion_l	hip_adduction_l	hip_rotation_l	knee_angle_l	knee_angle_l_beta	ankle_angle_l	subtalar_angle_l	mtp_angle_l	lumbar_extension	lumbar_bending	lumbar_rotation	arm_flex_r	arm_add_r	arm_rot_r	elbow_flex_r	pro_sup_r	wrist_flex_r	wrist_dev_r	arm_flex_l	arm_add_l	arm_rot_l	elbow_flex_l	pro_sup_l	wrist_flex_l	wrist_dev_l
      0.35000000	      4.02746925	      9.43340938	    -13.06275328	      0.24705723	      0.93605493	     -0.25006073	     23.24205276	     -6.52392553	     17.28865601	     60.40910053	      1.05433770	      7.72264230	      0.00000000	      0.00000000	     -2.39707662	     16.47950261	    -17.79416897	      6.68817512	      0.11673068	      8.41718992	      0.00000000	      0.00000000	     -9.46888036	     -8.43358924	      5.18416875	     -3.55452729	      3.33505282	     -8.40066244	     45.49097616	     83.50803017	      8.61706739	     10.34431520	     -5.08653380	      0.08402380	      3.24014462	     39.54453571	     87.73440305	     -2.39742561	     19.06443836
      0.36000000	      3.74107194	      9.40159732	    -12.86039191	      0.25878348	      0.93501428	     -0.25111855	     24.47999220	     -6.28446733	     17.08371007	     58.13286733	      1.01460994	      7.93744388	      0.00000000	      0.00000000	     -3.19102730	     16.70503733	    -17.59011107	      6.06748909	      0.10589766	      8.70164250	      0.00000000	      0.00000000	     -9.30749096	     -8.19650986	      4.38721608	     -4.00241193	      3.38479694	     -9.08634411	     44.85431706	     83.41609464	      8.48640638	     10.28216910	     -4.25052136	     -0.30646413	      3.50725514	     40.60374775	     87.72412143	     -2.25424887	     19.07361722
      0.37000000	      3.42499939	      9.35676885	    -12.43586155	      0.27058289	      0.93383060	     -0.25241484	     25.59650490	     -6.20851969	     16.44404845	     55.59975446	      0.97039878	      8.04549801	      0.00000000	      0.00000000	     -3.99313211	     16.88843889	    -16.98752230	      5.48506880	      0.09573251	      9.01026358	      0.00000000	      0.00000000	     -9.12781120	     -7.89968896	      3.42535179	     -4.47946386	      3.42306715	     -9.80980892	     44.24198964	     83.34655199	      8.36442370	     10.13238889	     -3.35672663	     -0.71580704	      3.78907194	     41.53788168	     87.67470256	     -2.08681612	     19.08452804
      0.38000000	      3.35680918	      9.22645507	    -11.55070130	      0.28241066	      0.93300270	     -0.25424596	     26.20421786	     -6.43834951	     15.02110902	     52.75888978	      0.92081634	      8.02268878	      0.00000000	      0.00000000	     -5.12530669	     16.97319385	    -15.69513376	      5.03584030	      0.08789199	      9.47560956	      0.00000000	      0.00000000	     -9.36209175	     -7.51980001	      2.11582694	     -5.01270718	      3.40841041	    -10.46359559	     43.75708684	     83.52444758	      8.29434747	      9.55928829	     -2.27523060	     -1.11030558	      4.08047944	     42.31772134	     87.55841495	     -1.79307760	     19.03738547
      0.39000000	      3.12779173	      9.50945497	    -11.56121249	      0.29414815	      0.93130982	     -0.25502678	     27.27524954	     -6.60140961	     14.52926359	     49.94782901	      0.87175407	      7.88026919	      0.00000000	      0.00000000	     -5.78124268	     17.49070856	    -15.84265520	      4.67934449	      0.08166997	      9.84722172	      0.00000000	      0.00000000	     -9.17446204	     -7.69319860	      1.67447558	     -5.59019544	      3.36615248	    -10.95199792	     43.29843596	     83.45019579	      8.17004255	      9.52098904	     -1.34673979	     -1.49129162	      4.09952107	     43.30065972	     87.55835403	     -1.75464934	     18.97032131
      0.40000000	      3.27555183	      9.04874298	    -10.41813380	      0.30619907	      0.93082190	     -0.25698490	     27.19499497	     -6.83826762	     12.06612900	     46.50744145	      0.81170798	      7.68355956	      0.00000000	      0.00000000	     -7.27505204	     17.18276808	    -14.29422523	      4.23726191	      0.07395417	     10.17497193	      0.00000000	      0.00000000	     -9.71357026	     -6.94828539	      0.15445184	     -6.02317364	      3.41559631	    -11.95268720	     42.62539744	     83.74379412	      7.95779743	      8.66473481	     -0.22242956	     -1.85668620	      4.39450681	     43.93574057	     87.49569141	     -1.67191722	     18.62253431
      0.41000000	      3.31752229	      8.88377660	     -9.78816817	      0.31817437	      0.92977519	     -0.25829411	     27.35584730	     -7.07217338	      9.99293979	     43.01174653	      0.75069659	      7.29186654	      0.00000000	      0.00000000	     -8.41512458	     17.15737384	    -13.56389209	      3.96852451	      0.06926382	     10.54723797	      0.00000000	      0.00000000	     -9.99242876	     -6.60095223	     -0.77256346	     -6.55851487	      3.41439390	    -12.73106161	     42.07426686	     83.93601770	      7.67837026	      8.18406023	      0.87363158	     -2.18524358	      4.49483714	     44.61450651	     87.51142828	     -1.77902411	     18.30502690
      0.42000000	      3.29982446	      8.67860441	     -9.11465797	      0.33032991	      0.92864847	     -0.25955770	     27.41100359	     -7.28653715	      7.48531394	     39.31443412	      0.68616632	      6.65442387	      0.00000000	      0.00000000	     -9.47857410	     17.03736045	    -12.88803530	      3.78729932	      0.06610084	     11.02163433	      0.00000000	      0.00000000	    -10.16537813	     -6.19987263	     -1.64986548	     -7.12682989	      3.41114544	    -13.55379837	     41.48487627	     84.09204497	      7.43935486	      7.91400099	      1.97665147	     -2.45483768	      4.51723835	     45.15430537	     87.54437143	     -1.89396366	     18.05606902
